<?xml version="1.0" encoding="utf-8"?>
<!-- Generator: Adobe Illustrator 26.3.1, SVG Export Plug-In . SVG Version: 6.00 Build 0)  -->
<svg version="1.1" id="Layer_1" xmlns="http://www.w3.org/2000/svg" xmlns:xlink="http://www.w3.org/1999/xlink" x="0px" y="0px"
	 viewBox="0 0 200 154.9" style="enable-background:new 0 0 200 154.9;" xml:space="preserve">
<style type="text/css">
	.st0{clip-path:url(#SVGID_00000043425775221758463240000013506988167185862064_);}
	.st1{fill:#EFEFEF;}
</style>
<g>
	<defs>
		<rect id="SVGID_1_" width="200" height="154.9"/>
	</defs>
	<clipPath id="SVGID_00000093139966902801653440000001792891266711816098_">
		<use xlink:href="#SVGID_1_"  style="overflow:visible;"/>
	</clipPath>
	<g style="clip-path:url(#SVGID_00000093139966902801653440000001792891266711816098_);">
		<path class="st1" d="M169.3,13.8c-12.7-5.8-26.4-10.2-40.7-12.6c-0.3,0-0.5,0.1-0.7,0.3c-1.8,3.1-3.7,7.2-5.1,10.4
			c-15.4-2.3-30.7-2.3-45.7,0C75.8,8.6,73.8,4.6,72,1.5c-0.1-0.2-0.4-0.3-0.7-0.3c-14.3,2.5-28,6.8-40.7,12.6
			c-0.1,0-0.2,0.1-0.3,0.2C4.4,52.8-2.7,90.5,0.8,127.9c0,0.2,0.1,0.4,0.3,0.5c17.1,12.6,33.7,20.2,49.9,25.2c0.3,0.1,0.5,0,0.7-0.2
			c3.8-5.3,7.3-10.8,10.2-16.6c0.2-0.3,0-0.7-0.3-0.9c-5.4-2.1-10.6-4.6-15.6-7.4c-0.4-0.2-0.4-0.8-0.1-1.1c1-0.8,2.1-1.6,3.1-2.4
			c0.2-0.2,0.4-0.2,0.6-0.1c32.7,14.9,68.2,14.9,100.5,0c0.2-0.1,0.5-0.1,0.7,0.1c1,0.8,2,1.7,3.1,2.4c0.4,0.3,0.3,0.8-0.1,1.1
			c-5,2.9-10.2,5.4-15.6,7.4c-0.4,0.1-0.5,0.5-0.3,0.9c3,5.8,6.4,11.4,10.2,16.6c0.2,0.2,0.4,0.3,0.7,0.2
			c16.3-5.1,32.9-12.7,50-25.2c0.1-0.1,0.2-0.3,0.3-0.5c4.2-43.1-7-80.6-29.6-113.8C169.5,13.9,169.4,13.8,169.3,13.8z M66.8,105.1
			c-9.9,0-18-9-18-20.2c0-11.1,8-20.2,18-20.2c10.1,0,18.1,9.1,18,20.2C84.8,96.1,76.8,105.1,66.8,105.1z M133.3,105.1
			c-9.9,0-18-9-18-20.2c0-11.1,8-20.2,18-20.2c10.1,0,18.1,9.1,18,20.2C151.3,96.1,143.4,105.1,133.3,105.1z"/>
	</g>
</g>
</svg>
