<?xml version="1.0" encoding="utf-8"?>
<!-- Generator: Adobe Illustrator 26.3.1, SVG Export Plug-In . SVG Version: 6.00 Build 0)  -->
<svg version="1.1" id="Logo" xmlns="http://www.w3.org/2000/svg" xmlns:xlink="http://www.w3.org/1999/xlink" x="0px" y="0px"
	 viewBox="0 0 2069.27 585.12" style="enable-background:new 0 0 2069.27 585.12;" xml:space="preserve">
<style type="text/css">
	.st0{fill:#A1DCF0;stroke:#EFEFEF;stroke-width:10;stroke-linecap:round;stroke-linejoin:round;}
	.st1{fill:#173743;stroke:#EFEFEF;stroke-width:10;stroke-linecap:round;stroke-linejoin:round;}
	.st2{fill:#7EADCC;stroke:#EFEFEF;stroke-width:10;stroke-linecap:round;stroke-linejoin:round;}
</style>
<g id="slash">
	<polygon class="st0" points="450.4,578.62 631.58,5.05 746.04,5.09 566.19,578.65 	"/>
</g>
<g id="left_chevron">
	<polygon class="st0" points="369.97,578.64 370.95,458.86 146.07,289.32 373.68,124.81 374.66,5.03 5,288.17 	"/>
</g>
<g id="m">
	<polygon class="st1" points="1612.07,578.63 1420.6,6.28 1324.35,291.41 1420.42,578.57 	"/>
	<polygon class="st2" points="1420.03,6.25 1226.87,578.48 1131.13,292.31 1228.37,6.19 	"/>
	<polygon class="st1" points="1225.95,578.85 1034.47,6.5 937.57,293.58 1038.29,580.12 	"/>
	<polygon class="st2" points="652.47,579.91 841.46,578.63 1034.53,6.4 841.55,5.01 	"/>
</g>
<g id="right_chevron">
	<polygon class="st0" points="1699.3,578.6 1698.32,458.83 1923.2,289.29 1695.6,124.78 1694.62,5 2064.27,288.14 	"/>
</g>
</svg>
