<?xml version="1.0" encoding="utf-8"?>
<!-- Generator: Adobe Illustrator 26.3.1, SVG Export Plug-In . SVG Version: 6.00 Build 0)  -->
<svg version="1.1" id="Logo" xmlns="http://www.w3.org/2000/svg" xmlns:xlink="http://www.w3.org/1999/xlink" x="0px" y="0px"
	 viewBox="0 0 2064.27 580.12" style="enable-background:new 0 0 2064.27 580.12;" xml:space="preserve">
<style type="text/css">
	.st0{fill:#577682;stroke:#173743;stroke-width:5;stroke-linecap:round;stroke-linejoin:round;}
	.st1{fill:#A1DCF0;stroke:#173743;stroke-width:5;stroke-linecap:round;stroke-linejoin:round;}
	.st2{fill:#7EADCC;stroke:#173743;stroke-width:5;stroke-linecap:round;stroke-linejoin:round;}
</style>
<g id="slash">
	<polygon class="st0" points="447.9,576.12 629.08,2.55 743.54,2.59 563.69,576.15 	"/>
</g>
<g id="left_chevron">
	<polygon class="st0" points="367.47,576.14 368.45,456.36 143.57,286.82 371.18,122.31 372.16,2.53 2.5,285.67 	"/>
</g>
<g id="m">
	<polygon class="st1" points="1609.57,576.13 1418.1,3.78 1321.85,288.91 1417.92,576.07 	"/>
	<polygon class="st2" points="1417.53,3.75 1224.37,575.98 1128.63,289.81 1225.87,3.69 	"/>
	<polygon class="st1" points="1223.45,576.35 1031.97,4 935.07,291.08 1035.79,577.62 	"/>
	<polygon class="st2" points="649.97,577.41 838.96,576.13 1032.03,3.9 839.05,2.51 	"/>
</g>
<g id="right_chevron">
	<polygon class="st0" points="1696.8,576.1 1695.82,456.33 1920.7,286.79 1693.1,122.28 1692.12,2.5 2061.77,285.64 	"/>
</g>
</svg>
